<?xml version="1.0" encoding="UTF-8" standalone="no"?>
<svg
   xmlns:dc="http://purl.org/dc/elements/1.1/"
   xmlns:cc="http://creativecommons.org/ns#"
   xmlns:rdf="http://www.w3.org/1999/02/22-rdf-syntax-ns#"
   xmlns:svg="http://www.w3.org/2000/svg"
   xmlns="http://www.w3.org/2000/svg"
   xmlns:sodipodi="http://sodipodi.sourceforge.net/DTD/sodipodi-0.dtd"
   xmlns:inkscape="http://www.inkscape.org/namespaces/inkscape"
   viewBox="0 0 113.896 25.65"
   version="1.1"
   id="svg12"
   sodipodi:docname="small logo.svg"
   width="113.896"
   height="25.65"
   inkscape:version="1.0.2 (e86c870879, 2021-01-15, custom)">
  <metadata
     id="metadata18">
    <rdf:RDF>
      <cc:Work
         rdf:about="">
        <dc:format>image/svg+xml</dc:format>
        <dc:type
           rdf:resource="http://purl.org/dc/dcmitype/StillImage" />
        <dc:title></dc:title>
      </cc:Work>
    </rdf:RDF>
  </metadata>
  <defs
     id="defs16" />
  <sodipodi:namedview
     pagecolor="#ffffff"
     bordercolor="#666666"
     borderopacity="1"
     objecttolerance="10"
     gridtolerance="10"
     guidetolerance="10"
     inkscape:pageopacity="0"
     inkscape:pageshadow="2"
     inkscape:window-width="1920"
     inkscape:window-height="1048"
     id="namedview14"
     showgrid="false"
     inkscape:zoom="7.3687408"
     inkscape:cx="49.162762"
     inkscape:cy="-4.3021519"
     inkscape:window-x="0"
     inkscape:window-y="32"
     inkscape:window-maximized="1"
     inkscape:current-layer="svg12"
     inkscape:snap-grids="true" />
  <path
     d="M 0.03103627,25.652502 H 25.681036 V 0.00250138 H 0.03103627 Z m 20.71299973,-15.293 h -5.42 V 4.9395013 h 5.42 z M 4.9670363,4.9395013 H 10.390036 V 15.295502 h 10.354 v 5.42 H 4.9670363 Z M 42.384036,0.00250138 a 12.825,12.825 0 1 0 12.825,12.82500062 12.84,12.84 0 0 0 -12.825,-12.82500062 z m 0,20.71300062 a 7.888,7.888 0 1 1 7.888,-7.888 7.9,7.9 0 0 1 -7.888,7.888 z M 101.10303,0.00250138 a 12.825,12.825 0 1 0 12.824,12.82500062 12.84,12.84 0 0 0 -12.824,-12.82500062 z m 0,20.71300062 a 7.888,7.888 0 1 1 7.887,-7.888 7.9,7.9 0 0 1 -7.887,7.888 z M 71.743036,0.00250138 a 12.825,12.825 0 1 0 12.825,12.82500062 12.84,12.84 0 0 0 -12.825,-12.82500062 z m 0,20.71300062 a 7.888,7.888 0 1 1 7.488,-10.356 h -7.488 v 4.936 h 7.488 a 7.9,7.9 0 0 1 -7.488,5.42 z"
     fill="#394149"
     id="path10" />
</svg>
